<?xml version="1.0" encoding="utf-8"?>
<!-- Generator: Adobe Illustrator 15.0.0, SVG Export Plug-In . SVG Version: 6.00 Build 0)  -->
<!DOCTYPE svg PUBLIC "-//W3C//DTD SVG 1.1//EN" "http://www.w3.org/Graphics/SVG/1.1/DTD/svg11.dtd">
<svg version="1.1" id="Слой_1" xmlns="http://www.w3.org/2000/svg" xmlns:xlink="http://www.w3.org/1999/xlink" x="0px" y="0px"
	 width="173.263px" height="34.103px" viewBox="0 0 173.263 34.103" enable-background="new 0 0 173.263 34.103"
	 xml:space="preserve">
<g>
	<defs>
		<rect id="SVGID_1_" width="173.263" height="34.103"/>
	</defs>
	<clipPath id="SVGID_2_">
		<use xlink:href="#SVGID_1_"  overflow="visible"/>
	</clipPath>
	<path clip-path="url(#SVGID_2_)" fill="#4F81C1" d="M57.132,19.821h-6.425V1.025h6.425c2.875,0,5.199,0.892,6.975,2.677
		c1.775,1.785,2.663,4.03,2.663,6.735c0,2.724-0.888,4.969-2.663,6.735C62.331,18.938,60.007,19.821,57.132,19.821 M57.132,17.736
		c2.217,0,3.974-0.695,5.27-2.085c1.296-1.39,1.944-3.128,1.944-5.213c0-2.104-0.639-3.851-1.916-5.242
		c-1.278-1.39-3.044-2.085-5.298-2.085h-4.086v14.625H57.132z"/>
	<path clip-path="url(#SVGID_2_)" fill="#4F81C1" d="M81.184,18.101c-1.229,1.372-2.859,2.058-4.888,2.058
		c-2.03,0-3.66-0.686-4.889-2.058c-1.232-1.371-1.847-3.071-1.847-5.1c0-2.029,0.615-3.724,1.847-5.087
		c1.229-1.362,2.859-2.043,4.889-2.043c2.029,0,3.659,0.681,4.888,2.043c1.232,1.363,1.847,3.058,1.847,5.087
		C83.031,15.03,82.416,16.73,81.184,18.101 M72.983,16.735c0.817,1.024,1.921,1.536,3.312,1.536c1.389,0,2.489-0.512,3.296-1.536
		c0.808-1.024,1.212-2.269,1.212-3.734c0-1.466-0.404-2.705-1.212-3.72c-0.807-1.015-1.907-1.522-3.296-1.522
		c-1.391,0-2.495,0.512-3.312,1.536c-0.816,1.024-1.226,2.259-1.226,3.706C71.758,14.466,72.167,15.711,72.983,16.735"/>
	<path clip-path="url(#SVGID_2_)" fill="#4F81C1" d="M92.47,20.158c-2.01,0-3.645-0.68-4.902-2.043
		c-1.26-1.361-1.89-3.066-1.89-5.115c0-2.047,0.63-3.748,1.89-5.1c1.258-1.353,2.893-2.029,4.902-2.029
		c2.104,0,3.769,0.789,4.988,2.367l-1.409,1.296c-0.865-1.183-2.019-1.775-3.466-1.775c-1.427,0-2.57,0.489-3.424,1.465
		c-0.855,0.977-1.282,2.236-1.282,3.776c0,1.541,0.427,2.804,1.282,3.791c0.854,0.986,1.997,1.479,3.424,1.479
		c1.428,0,2.583-0.591,3.466-1.775l1.409,1.296C96.238,19.369,94.574,20.158,92.47,20.158"/>
	<path clip-path="url(#SVGID_2_)" fill="#4F81C1" d="M111.718,19.82h-2.114v-1.916c-0.563,0.64-1.272,1.175-2.128,1.606
		c-0.854,0.432-1.76,0.647-2.719,0.647c-2.893,0-4.34-1.445-4.34-4.338v-9.61h2.114v8.961c0,1.128,0.258,1.926,0.774,2.396
		c0.517,0.469,1.272,0.704,2.269,0.704c0.79,0,1.555-0.197,2.297-0.592c0.743-0.395,1.32-0.883,1.732-1.465V6.209h2.114V19.82z"/>
	<path clip-path="url(#SVGID_2_)" fill="#4F81C1" d="M134.487,19.82h-2.113v-9.243c0-1.879-0.836-2.818-2.509-2.818
		c-0.677,0-1.353,0.207-2.027,0.62c-0.678,0.413-1.204,0.901-1.579,1.465v9.976h-2.114v-9.243c0-1.879-0.836-2.818-2.508-2.818
		c-0.658,0-1.32,0.207-1.987,0.62c-0.667,0.413-1.196,0.911-1.592,1.493v9.948h-2.113V6.209h2.113v1.972
		c0.338-0.525,0.931-1.042,1.777-1.549c0.844-0.508,1.717-0.761,2.619-0.761c0.996,0,1.805,0.235,2.425,0.704
		c0.619,0.47,1.032,1.081,1.239,1.832c0.412-0.676,1.042-1.268,1.889-1.775c0.844-0.508,1.736-0.761,2.676-0.761
		c2.536,0,3.805,1.371,3.805,4.114V19.82z"/>
	<path clip-path="url(#SVGID_2_)" fill="#4F81C1" d="M139.757,4.265c-0.376,0-0.705-0.136-0.985-0.409
		c-0.282-0.272-0.424-0.606-0.424-1c0-0.395,0.142-0.733,0.424-1.014c0.28-0.282,0.609-0.423,0.985-0.423
		c0.396,0,0.732,0.141,1.016,0.423c0.28,0.281,0.423,0.619,0.423,1.014c0,0.394-0.143,0.728-0.423,1
		C140.489,4.129,140.152,4.265,139.757,4.265 M140.828,19.821h-2.113V6.21h2.113V19.821z"/>
	<path clip-path="url(#SVGID_2_)" fill="#4F81C1" d="M156.354,19.82h-2.111v-8.905c0-1.146-0.265-1.958-0.789-2.438
		c-0.528-0.479-1.279-0.718-2.256-0.718c-0.788,0-1.556,0.207-2.298,0.62c-0.74,0.413-1.318,0.911-1.732,1.493v9.948h-2.113V6.209
		h2.113v1.972c0.525-0.619,1.229-1.159,2.114-1.62c0.884-0.46,1.795-0.69,2.732-0.69c2.894,0,4.34,1.465,4.34,4.396V19.82z"/>
	<path clip-path="url(#SVGID_2_)" fill="#4F81C1" d="M171.417,18.101c-1.23,1.372-2.86,2.058-4.889,2.058
		c-2.029,0-3.659-0.686-4.89-2.058c-1.23-1.371-1.846-3.071-1.846-5.1c0-2.029,0.615-3.724,1.846-5.087
		c1.23-1.362,2.86-2.043,4.89-2.043c2.028,0,3.658,0.681,4.889,2.043c1.231,1.363,1.846,3.058,1.846,5.087
		C173.263,15.03,172.648,16.73,171.417,18.101 M163.217,16.735c0.817,1.024,1.92,1.536,3.312,1.536c1.39,0,2.488-0.512,3.297-1.536
		c0.808-1.024,1.212-2.269,1.212-3.734c0-1.466-0.404-2.705-1.212-3.72c-0.809-1.015-1.907-1.522-3.297-1.522
		c-1.392,0-2.494,0.512-3.312,1.536c-0.816,1.024-1.226,2.259-1.226,3.706C161.991,14.466,162.4,15.711,163.217,16.735"/>
	<polygon clip-path="url(#SVGID_2_)" fill="#686766" points="54.129,32.412 54.129,28.45 51.297,28.45 51.297,32.412 50.627,32.412 
		50.627,27.814 54.791,27.814 54.791,32.412 	"/>
	<path clip-path="url(#SVGID_2_)" fill="#686766" d="M61.216,30.113c0,1.307-0.993,2.354-2.298,2.354
		c-0.745,0-1.389-0.404-1.701-0.993v2.63h-0.671v-6.288h0.478l0.027,1.039c0.349-0.653,1.049-1.104,1.867-1.104
		C60.223,27.75,61.216,28.808,61.216,30.113 M57.171,30.113c0,0.993,0.782,1.72,1.691,1.72c0.911,0,1.683-0.727,1.683-1.72
		s-0.772-1.719-1.683-1.719C57.953,28.394,57.171,29.12,57.171,30.113"/>
	<path clip-path="url(#SVGID_2_)" fill="#686766" d="M67.09,30.113c0,1.307-1.057,2.354-2.364,2.354
		c-1.304,0-2.352-1.047-2.352-2.354c0-1.305,1.048-2.363,2.352-2.363C66.033,27.75,67.09,28.808,67.09,30.113 M63.036,30.113
		c0,0.993,0.771,1.71,1.682,1.71c0.92,0,1.692-0.717,1.692-1.71s-0.772-1.719-1.692-1.719C63.807,28.394,63.036,29.12,63.036,30.113
		"/>
	<polygon clip-path="url(#SVGID_2_)" fill="#686766" points="69.186,32.412 68.515,32.412 68.515,27.814 72.054,27.814 
		72.054,28.45 69.186,28.45 	"/>
	<path clip-path="url(#SVGID_2_)" fill="#686766" d="M77.928,30.113c0,1.307-0.993,2.354-2.298,2.354
		c-0.745,0-1.388-0.404-1.701-0.993v2.63h-0.671v-6.288h0.478l0.028,1.039c0.349-0.653,1.048-1.104,1.866-1.104
		C76.935,27.75,77.928,28.808,77.928,30.113 M73.883,30.113c0,0.993,0.782,1.72,1.692,1.72c0.91,0,1.682-0.727,1.682-1.72
		s-0.772-1.719-1.682-1.719C74.665,28.394,73.883,29.12,73.883,30.113"/>
	<path clip-path="url(#SVGID_2_)" fill="#686766" d="M83.279,32.412l-0.028-1.038c-0.35,0.651-1.047,1.093-1.866,1.093
		c-1.305,0-2.298-1.047-2.298-2.354c0-1.305,0.993-2.363,2.298-2.363c0.819,0,1.516,0.451,1.866,1.094l0.028-1.028h0.478v4.597
		H83.279z M83.123,30.113c0-0.993-0.772-1.719-1.692-1.719c-0.911,0-1.682,0.726-1.682,1.719s0.771,1.71,1.682,1.71
		C82.351,31.823,83.123,31.106,83.123,30.113"/>
	<polygon clip-path="url(#SVGID_2_)" fill="#686766" points="89.521,32.412 89.521,28.935 87.831,30.858 86.138,28.935 
		86.138,32.412 85.467,32.412 85.467,27.814 85.872,27.814 87.831,30.04 89.789,27.814 90.191,27.814 90.191,32.412 	"/>
	<polygon clip-path="url(#SVGID_2_)" fill="#686766" points="95.947,32.412 95.947,28.935 94.257,30.858 92.563,28.935 
		92.563,32.412 91.893,32.412 91.893,27.814 92.298,27.814 94.257,30.04 96.215,27.814 96.618,27.814 96.618,32.412 	"/>
	<polygon clip-path="url(#SVGID_2_)" fill="#686766" points="101.812,32.412 101.812,30.417 98.99,30.417 98.99,32.412 
		98.317,32.412 98.317,27.814 98.99,27.814 98.99,29.772 101.812,29.772 101.812,27.814 102.482,27.814 102.482,32.412 	"/>
	<path clip-path="url(#SVGID_2_)" fill="#686766" d="M108.108,32.412l-0.027-1.038c-0.351,0.651-1.048,1.093-1.867,1.093
		c-1.304,0-2.298-1.047-2.298-2.354c0-1.305,0.994-2.363,2.298-2.363c0.819,0,1.517,0.451,1.867,1.094l0.027-1.028h0.479v4.597
		H108.108z M107.952,30.113c0-0.993-0.771-1.719-1.69-1.719c-0.912,0-1.684,0.726-1.684,1.719s0.771,1.71,1.684,1.71
		C107.181,31.823,107.952,31.106,107.952,30.113"/>
	<path clip-path="url(#SVGID_2_)" fill="#686766" d="M113.385,32.412v-1.498h-1.122c-0.605,0.018-0.771,0.256-1.195,0.9
		l-0.402,0.598h-0.736l0.488-0.727c0.265-0.405,0.439-0.699,0.725-0.873c-0.734-0.166-1.167-0.745-1.167-1.407
		c0-0.837,0.562-1.591,1.902-1.591h2.17v4.598H113.385z M111.813,28.458c-0.754,0-1.177,0.358-1.177,0.947
		c0,0.57,0.423,0.938,1.177,0.938h1.572v-1.886H111.813z"/>
	<polygon clip-path="url(#SVGID_2_)" fill="#686766" points="122.082,32.412 122.082,28.45 119.25,28.45 119.25,32.412 
		118.579,32.412 118.579,27.814 122.744,27.814 122.744,32.412 	"/>
	<polygon clip-path="url(#SVGID_2_)" fill="#686766" points="124.637,32.412 123.929,32.412 126.043,27.814 126.449,27.814 
		128.573,32.412 127.865,32.412 126.245,28.844 	"/>
	<path clip-path="url(#SVGID_2_)" fill="#686766" d="M133.453,32.412l-0.028-1.038c-0.349,0.651-1.047,1.093-1.864,1.093
		c-1.307,0-2.3-1.047-2.3-2.354c0-1.305,0.993-2.363,2.3-2.363c0.817,0,1.516,0.451,1.864,1.094l0.028-1.028h0.478v4.597H133.453z
		 M133.297,30.113c0-0.993-0.771-1.719-1.69-1.719c-0.912,0-1.684,0.726-1.684,1.719s0.771,1.71,1.684,1.71
		C132.525,31.823,133.297,31.106,133.297,30.113"/>
	<polygon clip-path="url(#SVGID_2_)" fill="#686766" points="137.47,32.412 136.799,32.412 136.799,28.45 135.116,28.45 
		135.116,27.814 139.153,27.814 139.153,28.45 137.47,28.45 	"/>
	<path clip-path="url(#SVGID_2_)" fill="#686766" d="M148.557,30.113c0,1.307-0.993,2.354-2.298,2.354
		c-0.735,0-1.379-0.396-1.701-0.983v2.501h-0.662v-2.492c-0.32,0.579-0.965,0.975-1.698,0.975c-1.308,0-2.301-1.047-2.301-2.354
		c0-1.305,0.993-2.363,2.301-2.363c0.798,0,1.487,0.443,1.837,1.076l0.019-1.011h0.358l0.01,1.011
		c0.349-0.633,1.038-1.076,1.838-1.076C147.563,27.75,148.557,28.808,148.557,30.113 M143.933,30.113
		c0-0.993-0.771-1.719-1.691-1.719c-0.909,0-1.683,0.726-1.683,1.719s0.773,1.72,1.683,1.72
		C143.161,31.833,143.933,31.106,143.933,30.113 M147.886,30.113c0-0.993-0.771-1.719-1.682-1.719c-0.91,0-1.692,0.726-1.692,1.719
		s0.782,1.72,1.692,1.72C147.115,31.833,147.886,31.106,147.886,30.113"/>
	<path clip-path="url(#SVGID_2_)" fill="#686766" d="M154.431,30.113c0,1.307-1.057,2.354-2.363,2.354
		c-1.305,0-2.353-1.047-2.353-2.354c0-1.305,1.048-2.363,2.353-2.363C153.374,27.75,154.431,28.808,154.431,30.113 M150.377,30.113
		c0,0.993,0.771,1.71,1.684,1.71c0.919,0,1.69-0.717,1.69-1.71s-0.771-1.719-1.69-1.719
		C151.148,28.394,150.377,29.12,150.377,30.113"/>
	<path clip-path="url(#SVGID_2_)" fill="#686766" d="M160.682,30.113c0,1.307-0.993,2.354-2.298,2.354
		c-0.745,0-1.388-0.404-1.701-0.993v2.63h-0.671v-6.288h0.479l0.026,1.039c0.349-0.653,1.047-1.104,1.866-1.104
		C159.688,27.75,160.682,28.808,160.682,30.113 M156.637,30.113c0,0.993,0.781,1.72,1.691,1.72c0.912,0,1.683-0.727,1.683-1.72
		s-0.771-1.719-1.683-1.719C157.418,28.394,156.637,29.12,156.637,30.113"/>
	<polygon clip-path="url(#SVGID_2_)" fill="#686766" points="166.17,32.412 166.17,28.935 164.479,30.858 162.787,28.935 
		162.787,32.412 162.116,32.412 162.116,27.814 162.521,27.814 164.479,30.04 166.438,27.814 166.841,27.814 166.841,32.412 	"/>
	<path clip-path="url(#SVGID_2_)" fill="#686766" d="M172.458,32.412l-0.027-1.038c-0.35,0.651-1.048,1.093-1.866,1.093
		c-1.306,0-2.299-1.047-2.299-2.354c0-1.305,0.993-2.363,2.299-2.363c0.818,0,1.517,0.451,1.866,1.094l0.027-1.028h0.478v4.597
		H172.458z M172.302,30.113c0-0.993-0.771-1.719-1.69-1.719c-0.911,0-1.684,0.726-1.684,1.719s0.772,1.71,1.684,1.71
		C171.531,31.823,172.302,31.106,172.302,30.113"/>
	<polygon clip-path="url(#SVGID_2_)" fill="#4F81C1" points="0.001,0 0.001,16.924 16.925,0 	"/>
	<path clip-path="url(#SVGID_2_)" fill="#4F81C1" d="M16.924,0v16.924H0v16.924h16.924c9.345,0,16.923-7.578,16.923-16.924
		S26.269,0,16.924,0"/>
</g>
</svg>
